<?xml version="1.0" encoding="iso-8859-1"?>
<!-- Uploaded to: SVG Repo, www.svgrepo.com, Generator: SVG Repo Mixer Tools -->
<svg height="800px" width="800px" version="1.1" id="Layer_1" xmlns="http://www.w3.org/2000/svg" xmlns:xlink="http://www.w3.org/1999/xlink" 
	 viewBox="0 0 512 512" xml:space="preserve">
<g>
	<path style="fill:#5B5D6E;" d="M488.032,98.042h-9.966c-2.845-5.198-8.506-9.374-15.208-10.271
		c-54.908-6.924-110.517-6.925-165.426,0c-3.828,0.512-7.317,2.095-10.136,4.327c-5.324,4.218-12.251,5.944-19.079,5.944h-23.414
		c-6.828,0-13.756-1.726-19.08-5.943c-2.818-2.232-6.308-3.815-10.137-4.328c-54.909-6.924-110.517-6.925-165.425,0
		C43.46,88.667,37.8,92.844,34.955,98.042h-9.987C16.149,98.042,9,105.093,9,113.79l0,0c0,8.698,7.149,15.749,15.968,15.749h2.912
		c4.719,0,8.708,3.427,9.325,8.042c2.341,17.497,4.683,35.207,7.026,53.275c2.01,15.342,16.509,29.062,33.809,30.613
		c36.49,3.035,73.182,3.035,109.671,0c17.3-1.558,31.8-15.272,33.809-30.613c1.833-14.126,3.664-28.089,5.495-41.888
		c4.803-11.403,16.187-19.43,29.487-19.43c13.342,0,24.745,8.082,29.522,19.542c1.826,13.763,3.653,27.688,5.48,41.775
		c2.01,15.342,16.508,29.062,33.808,30.613c36.49,3.035,73.181,3.035,109.671,0c17.3-1.558,31.8-15.272,33.809-30.613
		c2.344-18.068,4.686-35.778,7.026-53.275c0.617-4.615,4.605-8.042,9.325-8.042h2.891c8.819,0,15.968-7.051,15.968-15.749l0,0
		C504,105.093,496.851,98.042,488.032,98.042z"/>
	<path style="fill:#5B5D6E;" d="M456.903,319.9c0-9.314,48.097-10.645,48.097,39.918c0,39.252-59.387,101.526-184.371,55.885
		c-30.061-10.978-64.129-33.004-64.129-63.869c0-28.939,14.529-47.9,48.097-47.9c31.112,0,63.406,36.068,96.193,55.885
		c39.079,23.618,64.38,16.965,72.146,0C486.525,330.129,456.903,319.9,456.903,319.9z"/>
</g>
<path style="fill:#515262;" d="M452.141,422.859c-30.341,11.967-73.952,13.863-131.512-7.156
	c-30.06-10.978-64.129-33.005-64.129-63.868c0-4.83,0.565-9.262,1.396-13.493c7.173-30.201,37.261-24.748,67.156,12.47
	C359.328,393.482,395.219,439.383,452.141,422.859z"/>
<g>
	<path style="fill:#707487;" d="M291.661,305.117c3.976-0.723,8.222-1.185,12.936-1.185c31.112,0,63.405,36.069,96.193,55.886
		c19.646,11.873,35.802,16.086,48.005,15.195c64.773,1.4,39.066-66.873,8.108-55.113c0-9.314,48.097-10.645,48.097,39.918
		c0,5.124-1.038,10.644-3.076,16.261c-22.536,39.944-75.626,28.092-99.751,8.869C359.328,350.812,318.632,302.176,291.661,305.117z"
		/>
	<path style="fill:#707487;" d="M327.462,340.944c17.498,21.783,29.456,44.004,62.125,61.872
		c-13.451-2.675-43.113-0.266-71.765-46.137c-12.104-19.379-25.571-36.013-42.516-37.553
		C288.098,312.408,309.182,318.187,327.462,340.944z"/>
</g>
<g>
	<path style="fill:#5B5D6E;" d="M318.982,393.482c11.802,19.521,33.01,29.829,48.447,35.035
		c-14.437-2.551-30.007-6.682-46.801-12.814c-6.63-2.421-13.444-5.41-20.056-8.884c-11.642-38.437-23.722-30.938-23.722-30.938
		S295.417,354.507,318.982,393.482z"/>
	<path style="fill:#5B5D6E;" d="M56.097,319.9C56.097,310.586,8,309.256,8,359.818c0,39.252,59.387,101.526,184.371,55.885
		c30.061-10.978,64.129-33.004,64.129-63.869c0-28.939-14.529-47.9-48.097-47.9c-31.112,0-63.405,36.068-96.193,55.885
		c-39.079,23.618-64.38,16.965-72.146,0C26.475,330.129,56.097,319.9,56.097,319.9z"/>
</g>
<path style="fill:#515262;" d="M60.859,422.859c30.341,11.967,73.952,13.863,131.512-7.156
	c30.061-10.978,64.129-33.005,64.129-63.868c0-4.83-0.565-9.262-1.396-13.493c-7.174-30.201-37.261-24.748-67.156,12.47
	C153.672,393.482,117.781,439.383,60.859,422.859z"/>
<g>
	<path style="fill:#707487;" d="M221.339,305.117c-3.976-0.723-8.222-1.185-12.936-1.185c-31.112,0-63.405,36.069-96.193,55.886
		c-19.646,11.873-35.802,16.086-48.005,15.195c-64.773,1.4-39.067-66.873-8.108-55.113C56.097,310.586,8,309.256,8,359.818
		c0,5.124,1.038,10.644,3.076,16.261c22.536,39.944,75.626,28.092,99.751,8.869C153.672,350.812,194.367,302.176,221.339,305.117z"
		/>
	<path style="fill:#707487;" d="M185.538,340.944c-17.498,21.783-29.456,44.004-62.125,61.872
		c13.451-2.675,43.113-0.266,71.766-46.137c12.104-19.379,25.57-36.013,42.516-37.553
		C224.902,312.408,203.818,318.187,185.538,340.944z"/>
</g>
<path style="fill:#5B5D6E;" d="M194.018,393.482c-11.802,19.521-33.01,29.829-48.447,35.035
	c14.437-2.551,30.007-6.682,46.801-12.814c6.63-2.421,13.443-5.41,20.056-8.884c11.642-38.437,23.722-30.938,23.722-30.938
	S217.583,354.507,194.018,393.482z"/>
<g>
	<path style="fill:#2D2B29;" d="M496.361,318.236c-7.939-7.391-18.574-11.63-29.177-11.63c-13.252,0-19.185,6.562-19.185,13.063
		c0,3.408,2.113,6.426,5.333,7.542c0.096,0.035,9.639,3.56,13.016,11.585c2.03,4.825,1.482,10.731-1.628,17.555
		c-2.112,4.634-5.883,7.815-11.208,9.455c-6.931,2.135-22.561,3.289-49.363-12.976c-10.128-6.146-20.544-14.171-30.617-21.931
		c-22.483-17.32-45.731-35.23-69.534-35.23c-10.767,0-20.134,1.881-27.978,5.472c-0.116,0.044-0.231,0.075-0.348,0.12
		c-0.55,0.211-1.06,0.48-1.532,0.791c-7.677,3.913-13.775,9.571-18.142,16.833c-4.367-7.262-10.465-12.92-18.142-16.833
		c-0.473-0.311-0.982-0.58-1.532-0.791c-0.116-0.045-0.232-0.076-0.348-0.12c-7.844-3.591-17.211-5.472-27.978-5.472
		c-23.803,0-47.051,17.91-69.534,35.23c-10.073,7.76-20.489,15.784-30.617,21.931c-26.802,16.266-42.432,15.111-49.363,12.976
		c-5.324-1.64-9.095-4.821-11.208-9.455c-3.11-6.823-3.658-12.729-1.628-17.555c3.357-7.979,12.807-11.508,13.013-11.584
		c3.196-1.128,5.335-4.15,5.335-7.543c0-6.502-5.932-13.063-19.185-13.063c-10.603,0-21.237,4.239-29.177,11.63
		C8.504,324.877,0,337.456,0,359.67c0,20.967,13.516,43.432,35.274,58.628c7.324,5.115,17.696,10.855,31.426,15.11
		c0.064,0.021,0.13,0.037,0.195,0.058c12.056,3.715,26.687,6.283,44.111,6.283c22.928-0.001,50.686-4.445,83.747-16.568
		c12.325-4.519,45.806-18.716,61.246-43.993c15.44,25.277,48.921,39.475,61.246,43.993c33.067,12.125,60.817,16.569,83.747,16.568
		c17.383-0.001,31.989-2.559,44.03-6.261c0.098-0.029,0.198-0.055,0.294-0.088c13.722-4.254,24.088-9.99,31.408-15.103
		C498.484,403.102,512,380.637,512,359.67C512,337.456,503.496,324.877,496.361,318.236z M189.246,408.159
		c-27.7,10.155-51.194,14.576-70.896,15.449c5.268-3.444,10.499-7.649,15.709-12.636c3.192-3.055,3.303-8.118,0.249-11.311
		c-3.055-3.191-8.119-3.303-11.311-0.248c-17.456,16.705-33.929,22.631-51.836,18.644c-11.673-3.656-20.479-8.514-26.726-12.877
		C23.447,390.521,16,371.503,16,359.67c0-16.098,5.419-27.676,15.673-33.481c1.488-0.843,2.979-1.505,4.433-2.019
		c-1.98,2.346-3.771,5.079-5.124,8.237c-3.922,9.158-3.337,19.447,1.739,30.581c3.975,8.72,11.453,15.151,21.056,18.109
		c11.6,3.573,31.836,3.943,62.374-14.589c10.888-6.606,21.662-14.906,32.081-22.934c13.46-10.37,27.223-20.969,40.309-26.965
		c-10.041,10.159-19.56,23.642-29.563,37.811c-5.368,7.604-10.919,15.467-16.623,22.886c-2.693,3.503-2.036,8.525,1.466,11.219
		c1.454,1.117,3.168,1.657,4.87,1.657c2.399,0,4.773-1.075,6.348-3.124c5.902-7.678,11.548-15.675,17.009-23.409
		c24.169-34.235,40.168-54.506,58.538-47.452c0.007,0.003,0.014,0.004,0.021,0.007C242.271,322.121,248,333.867,248,351.67
		C248,377.436,217.649,397.744,189.246,408.159z M467.564,405.181c-6.244,4.362-15.044,9.218-26.71,12.874
		c-17.912,3.997-34.389-1.93-51.852-18.641c-3.192-3.057-8.256-2.944-11.311,0.248s-2.943,8.256,0.249,11.311
		c5.212,4.988,10.444,9.193,15.712,12.638c-19.702-0.872-43.197-5.294-70.898-15.451C294.351,397.744,264,377.436,264,351.67
		c0-17.803,5.729-29.549,17.394-35.466c0.007-0.003,0.014-0.004,0.021-0.007c18.37-7.067,34.369,13.217,58.538,47.452
		c5.46,7.734,11.106,15.731,17.009,23.409c1.576,2.05,3.948,3.125,6.348,3.124c1.701,0,3.417-0.54,4.87-1.657
		c3.502-2.693,4.159-7.716,1.466-11.219c-5.704-7.419-11.254-15.282-16.623-22.886c-10.004-14.169-19.522-27.651-29.563-37.811
		c13.086,5.996,26.849,16.595,40.309,26.965c10.419,8.027,21.193,16.327,32.081,22.934c30.538,18.531,50.775,18.162,62.374,14.589
		c9.603-2.958,17.081-9.39,21.056-18.109c5.076-11.134,5.661-21.423,1.739-30.581c-1.353-3.158-3.143-5.892-5.124-8.237
		c1.454,0.514,2.945,1.176,4.433,2.019C490.581,331.994,496,343.572,496,359.67C496,371.503,488.553,390.521,467.564,405.181z"/>
	<path style="fill:#2D2B29;" d="M24,135.96h2.917c0.726,0,1.32,0.512,1.413,1.217c2.56,19.399,4.861,37.095,7.037,54.104
		c2.557,19.791,20.22,36.146,41.139,38.048c36.906,3.112,74.332,3.113,111.292-0.005c20.867-1.905,38.529-18.261,41.085-38.053
		c1.786-13.96,3.57-27.762,5.355-41.406c3.931-8.48,12.367-13.905,21.761-13.905c9.431,0,17.882,5.464,21.794,14.002
		c1.78,13.613,3.562,27.383,5.344,41.319c2.557,19.791,20.22,36.146,41.138,38.048c18.446,1.556,37.021,2.334,55.604,2.334
		c18.597,0,37.201-0.779,55.688-2.339c20.867-1.905,38.529-18.261,41.085-38.053c2.162-16.897,4.463-34.593,7.036-54.095
		c0.093-0.705,0.688-1.217,1.413-1.217H488c13.234,0,24-10.767,24-24s-10.766-24-24-24h-5.759
		c-4.518-5.55-11.217-9.39-18.451-10.371c-55.672-7.116-112.124-7.117-167.848,0.008c-5.124,0.694-9.997,2.799-14.092,6.087
		c-3.434,2.758-8.444,4.276-14.108,4.276h-23.46c-5.666,0-10.676-1.519-14.108-4.275c-4.092-3.287-8.965-5.392-14.153-6.096
		c-55.673-7.117-112.125-7.117-167.85,0.008c-7.184,0.975-13.874,4.814-18.39,10.363H24c-13.234,0-24,10.767-24,24
		S10.766,135.96,24,135.96z M24,103.96h10.007c2.94,0,5.644-1.612,7.04-4.2c1.787-3.31,5.427-5.786,9.212-6.3
		c54.318-6.947,109.405-6.947,163.67-0.008c2.246,0.305,4.397,1.24,6.223,2.707c6.354,5.104,14.697,7.801,24.128,7.801h23.46
		c9.429,0,17.772-2.698,24.126-7.801c1.827-1.468,3.979-2.403,6.163-2.699c54.317-6.947,109.405-6.946,163.669-0.008
		c3.847,0.521,7.487,2.998,9.274,6.308c1.396,2.588,4.1,4.2,7.04,4.2H488c4.411,0,8,3.589,8,8s-3.589,8-8,8h-2.896
		c-8.711,0-16.138,6.502-17.275,15.124c-2.576,19.523-4.88,37.238-7.043,54.147c-1.565,12.121-13.53,22.959-26.615,24.154
		c-36.014,3.037-72.535,3.038-108.496,0.005c-13.138-1.195-25.1-12.032-26.666-24.149c-1.832-14.321-3.664-28.476-5.494-42.466
		c-0.09-0.688-0.27-1.361-0.533-2.003c-6.196-15.073-20.712-24.813-36.981-24.813c-16.211,0-30.708,9.684-36.934,24.671
		c-0.27,0.65-0.453,1.333-0.544,2.031c-1.836,14.026-3.672,28.22-5.507,42.569c-1.565,12.121-13.53,22.959-26.615,24.154
		c-36.014,3.037-72.535,3.038-108.496,0.005c-13.138-1.195-25.101-12.033-26.666-24.149c-2.177-17.021-4.481-34.736-7.044-54.158
		c-1.138-8.621-8.564-15.123-17.275-15.123H24c-4.411,0-8-3.589-8-8S19.589,103.96,24,103.96z"/>
	<path style="fill:#2D2B29;" d="M80,199.96c2.047,0,4.095-0.781,5.657-2.343l88-88c3.125-3.125,3.125-8.189,0-11.314
		c-3.124-3.123-8.189-3.123-11.313,0l-88,88c-3.125,3.125-3.125,8.189,0,11.314C75.905,199.179,77.953,199.96,80,199.96z"/>
	<path style="fill:#2D2B29;" d="M138.343,173.617c1.562,1.562,3.609,2.343,5.657,2.343s4.095-0.781,5.657-2.343l40-40
		c3.125-3.125,3.125-8.189,0-11.314c-3.124-3.123-8.189-3.123-11.313,0l-40,40C135.219,165.428,135.219,170.492,138.343,173.617z"/>
	<path style="fill:#2D2B29;" d="M386.343,173.617c1.562,1.562,3.609,2.343,5.657,2.343s4.095-0.781,5.657-2.343l40-40
		c3.125-3.125,3.125-8.189,0-11.314c-3.124-3.123-8.189-3.123-11.313,0l-40,40C383.219,165.428,383.219,170.492,386.343,173.617z"/>
	<path style="fill:#2D2B29;" d="M328,199.96c2.047,0,4.095-0.781,5.657-2.343l88-88c3.125-3.125,3.125-8.189,0-11.314
		c-3.124-3.123-8.189-3.123-11.313,0l-88,88c-3.125,3.125-3.125,8.189,0,11.314C323.905,199.179,325.953,199.96,328,199.96z"/>
</g>
</svg>